<?xml version="1.0" standalone="no"?>
<!DOCTYPE svg PUBLIC "-//W3C//DTD SVG 20010904//EN"
 "http://www.w3.org/TR/2001/REC-SVG-20010904/DTD/svg10.dtd">
<svg version="1.0" xmlns="http://www.w3.org/2000/svg"
 width="512.000000pt" height="512.000000pt" viewBox="0 0 512.000000 512.000000"
 preserveAspectRatio="xMidYMid meet">
<metadata>
Created by potrace 1.14, written by Peter Selinger 2001-2017
</metadata>
<g transform="translate(0.000000,512.000000) scale(0.100000,-0.100000)"
fill="#000000" stroke="none">
<path d="M1362 4947 c-56 -17 -128 -91 -147 -148 -32 -95 -6 -190 69 -256 66
-59 161 -77 239 -47 15 5 50 -24 168 -142 l149 -149 0 -261 0 -262 -53 -6
c-107 -14 -223 -88 -282 -180 -42 -67 -59 -119 -64 -193 -1 -23 -3 -23 -144
-23 l-142 0 -109 109 -108 109 12 36 c14 44 7 124 -16 172 -50 105 -183 157
-299 118 -81 -28 -155 -133 -155 -220 0 -77 46 -162 108 -203 50 -33 134 -47
190 -32 l46 12 131 -131 130 -130 178 0 177 0 0 -80 0 -80 -254 0 -253 0 -69
-56 c-38 -31 -89 -73 -114 -94 -245 -206 -234 -198 -260 -188 -14 6 -46 12
-72 15 -162 16 -299 -154 -246 -308 56 -166 254 -221 384 -106 69 61 96 144
76 233 l-9 40 183 152 183 152 226 0 225 0 0 -80 0 -80 -120 0 -120 0 0 -80 0
-80 120 0 120 0 0 -80 0 -80 -360 0 -360 0 0 -80 0 -80 360 0 360 0 0 -80 0
-80 -222 0 -223 0 -159 -240 -158 -240 -42 0 c-171 -2 -287 -182 -218 -340 54
-126 213 -179 334 -113 120 65 160 197 98 319 l-30 59 132 198 131 197 178 0
c179 0 179 0 180 -22 3 -83 49 -187 111 -254 62 -66 178 -120 266 -123 l22 -1
0 -263 0 -262 -149 -149 c-118 -118 -153 -147 -168 -142 -77 30 -172 12 -238
-46 -57 -50 -76 -89 -81 -160 -5 -83 18 -139 77 -192 113 -101 276 -81 358 46
37 56 50 136 31 193 l-12 37 171 172 171 171 0 298 0 297 80 0 80 0 0 -240 0
-240 80 0 80 0 0 240 0 240 80 0 80 0 0 -342 0 -343 241 -150 240 -151 3 -65
c7 -211 247 -310 407 -167 120 106 87 318 -62 392 -64 32 -152 31 -218 -2
l-44 -22 -108 68 c-60 37 -151 94 -204 127 l-95 60 0 297 0 298 80 0 80 0 0
-120 0 -120 80 0 80 0 0 120 0 120 80 0 80 0 0 -320 0 -320 290 0 290 0 6 -25
c9 -37 96 -110 148 -125 109 -30 228 22 284 125 23 41 23 169 0 211 -27 50
-89 103 -141 120 -112 37 -242 -17 -289 -119 l-13 -27 -207 0 -208 0 0 240 0
240 23 1 c192 6 369 183 376 377 l1 22 343 0 343 0 68 -69 c67 -68 68 -70 57
-102 -40 -116 33 -255 155 -294 99 -31 184 -7 252 70 84 95 82 218 -5 315 -66
73 -154 95 -258 65 -16 -5 -40 14 -110 85 l-90 90 -377 0 -378 0 0 80 0 80
200 0 200 0 0 80 0 80 -200 0 -200 0 0 80 0 80 210 0 210 0 229 114 c220 111
229 114 247 97 76 -72 236 -59 316 26 116 121 66 332 -91 388 -150 53 -304
-47 -319 -208 l-5 -48 -208 -105 -209 -104 -190 0 -190 0 0 80 0 80 120 0 120
0 0 80 0 80 -120 0 -120 0 0 80 0 80 177 0 178 0 130 130 130 130 62 -12 c83
-15 138 1 203 59 57 51 79 106 76 185 -11 246 -343 312 -451 90 -23 -46 -29
-123 -15 -167 l12 -37 -108 -109 -109 -109 -142 0 -142 0 -7 56 c-9 76 -63
182 -120 234 -25 23 -74 55 -109 71 -59 28 -85 35 -142 38 -22 1 -23 4 -23
104 l0 102 229 229 229 228 36 -12 c93 -30 208 15 267 104 29 45 33 59 34 121
0 106 -40 172 -137 222 -82 42 -214 15 -275 -55 -54 -62 -75 -163 -51 -234 11
-30 8 -33 -241 -282 l-251 -251 0 -138 0 -137 -80 0 -80 0 0 120 0 120 -80 0
-80 0 0 -120 0 -120 -80 0 -80 0 0 289 c0 281 1 290 20 296 11 4 34 18 51 32
107 90 117 252 21 348 -49 49 -83 66 -147 72 -135 14 -265 -98 -265 -229 0
-87 61 -189 130 -218 l30 -12 0 -289 0 -289 -80 0 -80 0 0 120 0 120 -80 0
-80 0 0 -120 0 -120 -80 0 -80 0 0 297 0 298 -171 171 -171 171 12 44 c49 179
-128 344 -308 286z m125 -162 c26 -18 39 -75 24 -103 -5 -10 -24 -25 -41 -32
-71 -30 -137 49 -95 113 24 38 75 48 112 22z m2411 -168 c7 -8 15 -29 18 -49
16 -93 -124 -119 -150 -28 -11 36 7 77 39 91 25 11 75 3 93 -14z m-1282 -78
c39 -32 17 -123 -32 -135 -43 -11 -92 19 -99 60 -7 37 14 81 43 90 23 6 72 -2
88 -15z m-1856 -874 c58 -30 45 -126 -19 -140 -83 -18 -132 74 -71 135 24 24
51 25 90 5z m3675 5 c30 -11 48 -53 40 -91 -15 -67 -112 -77 -142 -15 -20 43
-11 81 25 100 33 18 43 19 77 6z m-1079 -165 c55 -16 112 -66 140 -123 18 -35
19 -79 22 -797 2 -526 -1 -774 -8 -804 -15 -59 -55 -113 -110 -148 l-45 -28
-760 -3 c-537 -2 -775 0 -812 8 -39 8 -65 23 -102 56 -84 76 -81 37 -81 899 0
856 -4 813 80 888 27 24 63 48 82 54 22 7 285 11 789 12 637 1 763 -1 805 -14z
m1404 -560 c59 -30 45 -126 -20 -140 -70 -15 -124 60 -85 118 24 38 60 45 105
22z m-4327 -474 c35 -14 53 -63 37 -101 -16 -39 -43 -53 -86 -45 -44 8 -69 44
-60 88 11 54 56 78 109 58z m4327 -806 c59 -30 45 -126 -20 -140 -70 -15 -124
60 -85 118 24 38 60 45 105 22z m-4058 -337 c50 -65 -17 -148 -95 -119 -51 20
-59 97 -14 134 29 23 85 16 109 -15z m3274 -389 c39 -32 17 -123 -32 -135 -43
-11 -92 19 -99 60 -7 37 14 81 43 90 23 6 72 -2 88 -15z m-2480 -480 c39 -32
17 -123 -32 -135 -43 -11 -92 19 -99 60 -7 37 14 81 43 90 23 6 72 -2 88 -15z
m1732 15 c30 -9 55 -58 47 -94 -15 -66 -110 -79 -141 -18 -19 37 -12 76 19
100 24 19 39 21 75 12z"/>
<path d="M2485 3354 c-162 -39 -279 -154 -315 -306 -5 -24 -10 -75 -10 -115 0
-64 -2 -72 -21 -78 -33 -11 -97 -74 -117 -114 -15 -32 -17 -76 -17 -421 0
-431 -1 -423 72 -490 74 -68 52 -65 458 -68 260 -2 382 0 410 8 57 17 120 68
147 120 23 44 23 51 26 408 2 222 -1 377 -7 400 -16 59 -61 119 -107 143 l-41
23 -6 99 c-5 88 -9 108 -42 173 -66 134 -187 213 -335 220 -41 1 -84 1 -95 -2z
m179 -179 c86 -41 136 -128 136 -237 l0 -58 -240 0 -240 0 0 56 c0 31 5 75 12
96 16 55 89 133 141 152 52 19 140 15 191 -9z m273 -478 c16 -16 18 -47 21
-355 2 -185 0 -347 -3 -360 -3 -12 -14 -31 -25 -42 -19 -19 -35 -20 -357 -20
-186 0 -348 3 -361 6 -49 14 -52 37 -52 394 0 273 3 336 15 360 8 15 20 31 27
33 7 3 171 5 365 4 323 -2 354 -3 370 -20z"/>
<path d="M2477 2626 c-56 -21 -98 -58 -132 -116 -26 -45 -28 -170 -3 -215 22
-42 87 -104 115 -111 22 -6 23 -11 23 -95 l0 -89 80 0 80 0 0 89 0 89 30 12
c69 29 130 131 130 218 0 76 -60 170 -133 208 -44 22 -143 28 -190 10z m138
-166 c39 -32 19 -124 -30 -136 -84 -21 -136 75 -74 137 17 17 29 20 56 16 19
-3 41 -11 48 -17z"/>
<path d="M2160 4160 l0 -80 80 0 80 0 0 80 0 80 -80 0 -80 0 0 -80z"/>
<path d="M2800 4160 l0 -80 80 0 80 0 0 80 0 80 -80 0 -80 0 0 -80z"/>
<path d="M1280 3680 l0 -80 80 0 80 0 0 80 0 80 -80 0 -80 0 0 -80z"/>
<path d="M3680 3680 l0 -80 80 0 80 0 0 80 0 80 -80 0 -80 0 0 -80z"/>
<path d="M4080 2880 l0 -80 80 0 80 0 0 80 0 80 -80 0 -80 0 0 -80z"/>
<path d="M880 2560 l0 -80 80 0 80 0 0 80 0 80 -80 0 -80 0 0 -80z"/>
<path d="M4240 2240 l0 -80 80 0 80 0 0 80 0 80 -80 0 -80 0 0 -80z"/>
<path d="M1280 1440 l0 -80 80 0 80 0 0 80 0 80 -80 0 -80 0 0 -80z"/>
<path d="M3680 1440 l0 -80 80 0 80 0 0 80 0 80 -80 0 -80 0 0 -80z"/>
<path d="M2800 960 l0 -80 80 0 80 0 0 80 0 80 -80 0 -80 0 0 -80z"/>
<path d="M2160 720 l0 -80 80 0 80 0 0 80 0 80 -80 0 -80 0 0 -80z"/>
</g>
</svg>
